<?xml version="1.0" encoding="iso-8859-1"?>
<!-- Generator: Adobe Illustrator 19.0.0, SVG Export Plug-In . SVG Version: 6.00 Build 0)  -->
<svg version="1.1" id="Layer_1" xmlns="http://www.w3.org/2000/svg" xmlns:xlink="http://www.w3.org/1999/xlink" x="0px" y="0px"
	 viewBox="0 0 232 232" style="enable-background:new 0 0 232 232;" xml:space="preserve">
<g>
	<g>
		<g>
			<path d="M220.027,46H204V30h-36v16H88v-7.344C88,31.678,82.307,26,75.307,26H44.692C37.693,26,32,31.678,32,38.656V46H11.973
				C5.371,46,0,51.389,0,58.012v135.976C0,200.613,5.371,206,11.973,206h208.055c6.601,0,11.972-5.387,11.972-12.012V58.012
				C232,51.389,226.629,46,220.027,46z M176,38h20v8h-20V38z M40,38.656C40,36.045,42.06,34,44.692,34h30.615
				C77.894,34,80,36.088,80,38.656V46h-8v-8h-8v8h-8v-8h-8v8h-8V38.656z M224,193.988c0,2.211-1.781,4.012-3.973,4.012H11.973
				C9.781,198,8,196.199,8,193.988V58.012C8,55.799,9.781,54,11.973,54H168h36h16.027c2.192,0,3.973,1.799,3.973,4.012V193.988z"/>
			<path d="M16,190h144V86H16V190z M24,94h128v88H24V94z"/>
			<path d="M79.99,82h20.02c6.611,0,11.99-5.383,11.99-12s-5.379-12-11.99-12H79.99C73.379,58,68,63.383,68,70S73.379,82,79.99,82z
				 M79.99,66h20.02c2.201,0,3.99,1.795,3.99,4s-1.789,4-3.99,4H79.99C77.752,74,76,72.242,76,70C76,67.795,77.789,66,79.99,66z"/>
			<path d="M192,86c-13.234,0-24,10.766-24,24s10.766,24,24,24s24-10.766,24-24S205.234,86,192,86z M192,126
				c-8.822,0-16-7.176-16-16c0-8.822,7.178-16,16-16s16,7.178,16,16C208,118.824,200.822,126,192,126z"/>
			<path d="M192,98c-6.617,0-12,5.383-12,12s5.383,12,12,12s12-5.383,12-12S198.617,98,192,98z M192,114c-2.205,0-4-1.795-4-4
				s1.795-4,4-4s4,1.795,4,4S194.205,114,192,114z"/>
		</g>
	</g>
</g>
<g>
</g>
<g>
</g>
<g>
</g>
<g>
</g>
<g>
</g>
<g>
</g>
<g>
</g>
<g>
</g>
<g>
</g>
<g>
</g>
<g>
</g>
<g>
</g>
<g>
</g>
<g>
</g>
<g>
</g>
</svg>
